<?xml version="1.0" encoding="UTF-8"?>
<svg xmlns="http://www.w3.org/2000/svg" xmlns:xlink="http://www.w3.org/1999/xlink" width="48pt" height="48pt" viewBox="0 0 48 48" version="1.1">
<g id="surface945785">
<path style="fill-rule:nonzero;fill:rgb(80%,80%,80%);fill-opacity:1;stroke-width:5;stroke-linecap:butt;stroke-linejoin:round;stroke:rgb(49.411765%,46.666667%,46.666667%);stroke-opacity:1;stroke-miterlimit:10;" d="M 21.505305 78.835524 L 150.494695 78.835524 L 150.494695 93.164476 L 21.505305 93.164476 Z M 21.505305 35.834256 L 150.494695 35.834256 L 150.494695 50.163207 L 21.505305 50.163207 Z M 21.505305 121.836793 L 150.494695 121.836793 L 150.494695 136.165744 L 21.505305 136.165744 Z M 21.505305 121.836793 " transform="matrix(0.270977,0,0,0.270977,0.696,0.696)"/>
<path style=" stroke:none;fill-rule:nonzero;fill:rgb(80%,80%,80%);fill-opacity:1;" d="M 6.523438 22.058594 L 41.476562 22.058594 L 41.476562 25.941406 L 6.523438 25.941406 Z M 6.523438 10.40625 L 41.476562 10.40625 L 41.476562 14.289062 L 6.523438 14.289062 Z M 6.523438 33.710938 L 41.476562 33.710938 L 41.476562 37.59375 L 6.523438 37.59375 Z M 6.523438 33.710938 "/>
</g>
</svg>
